<svg width="30" height="30" viewBox="0 0 30 30" fill="none" xmlns="http://www.w3.org/2000/svg">
<path d="M25.4062 13.4184V5.05875L22.6481 7.81875C20.4637 5.63906 17.9296 4.53469 15.045 4.53469C9.28309 4.53469 4.59465 9.23156 4.59277 15C4.59371 20.7675 9.28309 25.4606 15.0459 25.4625C19.0546 25.4625 23.8293 23.3747 25.2046 17.5144L25.2309 17.4H22.2028L22.1821 17.4637C21.1715 20.5031 18.3028 22.5459 15.045 22.5459C14.0536 22.5482 13.0717 22.3539 12.1559 21.9743C11.2401 21.5947 10.4087 21.0373 9.70965 20.3344C9.00697 19.6356 8.44986 18.8045 8.07057 17.889C7.69128 16.9735 7.49733 15.9919 7.49996 15.0009C7.49996 10.8403 10.8853 7.455 15.0468 7.455C16.9865 7.455 18.4575 7.99875 20.6006 9.86719L17.0456 13.4194L25.4062 13.4184Z" fill="black"/>
</svg>
